@startuml

class Usuario
class Alumno
class Exalumno
class Posts
class Comunidades
class Etiquetas
class Comentario

' Relaciones de herencia
Alumno --> Usuario
Exalumno --> Usuario

' Relaciones entre clases
Usuario --> Posts : realiza
Usuario --> Comunidades : participa
Comunidades --> Posts : formadas por
Posts --> Etiquetas : categorizado por
Posts --> Comentario : tiene
Comentario --> Usuario : escrito por
Usuario --> Etiquetas : Asigna a Posts

@enduml
